<?xml version="1.0" encoding="UTF-8"?>
<svg width="32px" height="32px" viewBox="0 0 32 32" version="1.1" xmlns="http://www.w3.org/2000/svg" xmlns:xlink="http://www.w3.org/1999/xlink">
    <!-- Generator: Sketch 48.2 (47327) - http://www.bohemiancoding.com/sketch -->
    <title>Slice Copy 8</title>
    <desc>Created with Sketch.</desc>
    <defs></defs>
    <g id="Page-1" stroke="none" stroke-width="1" fill="none" fill-rule="evenodd">
        <path d="M28.257812,13.096137 C29.8802736,13.8755433 31,15.5314471 31,17.4482759 C31,19.3651046 29.8802736,21.0210085 28.257812,21.8004147 C26.4158279,26.587395 21.6227239,30 16,30 C10.3772761,30 5.58417207,26.587395 3.74218802,21.8004147 C2.11972635,21.0210085 1,19.3651046 1,17.4482759 C1,15.5314471 2.11972635,13.8755433 3.74218802,13.096137 C5.32457595,8.98379966 9.08487956,5.8857462 13.6780924,5.09419055 C13.6146681,4.87839353 13.5806452,4.65005742 13.5806452,4.4137931 C13.5806452,3.08069198 14.6638272,2 16,2 C17.3361728,2 18.4193548,3.08069198 18.4193548,4.4137931 C18.4193548,4.65005742 18.3853319,4.87839353 18.3219076,5.09419055 C22.9151204,5.8857462 26.6754241,8.98379966 28.257812,13.096137 Z M16,26.137931 C21.6119257,26.137931 26.1612903,22.2474399 26.1612903,17.4482759 C26.1612903,12.6491118 21.6119257,8.75862069 16,8.75862069 C10.3880743,8.75862069 5.83870968,12.6491118 5.83870968,17.4482759 C5.83870968,22.2474399 10.3880743,26.137931 16,26.137931 Z M12.1290323,19.3793103 C10.7928595,19.3793103 9.70967742,18.2986184 9.70967742,16.9655172 C9.70967742,15.6324161 10.7928595,14.5517241 12.1290323,14.5517241 C13.465205,14.5517241 14.5483871,15.6324161 14.5483871,16.9655172 C14.5483871,18.2986184 13.465205,19.3793103 12.1290323,19.3793103 Z M19.8709677,19.3793103 C18.534795,19.3793103 17.4516129,18.2986184 17.4516129,16.9655172 C17.4516129,15.6324161 18.534795,14.5517241 19.8709677,14.5517241 C21.2071405,14.5517241 22.2903226,15.6324161 22.2903226,16.9655172 C22.2903226,18.2986184 21.2071405,19.3793103 19.8709677,19.3793103 Z" id="Combined-Shape" fill="#3F82F7"></path>
    </g>
</svg>