<?xml version="1.0" encoding="UTF-8"?>
<svg width="32px" height="32px" viewBox="0 0 32 32" version="1.1" xmlns="http://www.w3.org/2000/svg" xmlns:xlink="http://www.w3.org/1999/xlink">
    <!-- Generator: Sketch 48.2 (47327) - http://www.bohemiancoding.com/sketch -->
    <title>Slice Copy 7</title>
    <desc>Created with Sketch.</desc>
    <defs></defs>
    <g id="Page-1" stroke="none" stroke-width="1" fill="none" fill-rule="evenodd">
        <path d="M30,12 L23.36,12 C21.5043232,12 20,13.5043232 20,15.36 L20,15.64 C20,17.4956768 21.5043232,19 23.36,19 L30,19 L30,28 C30,28.5522847 29.5522847,29 29,29 L3,29 C2.44771525,29 2,28.5522847 2,28 L2,4 C2,3.44771525 2.44771525,3 3,3 L29,3 C29.5522847,3 30,3.44771525 30,4 L30,12 Z M23.7,16.8888889 C22.9268014,16.8888889 22.3,16.2670622 22.3,15.5 C22.3,14.7329378 22.9268014,14.1111111 23.7,14.1111111 C24.4731986,14.1111111 25.1,14.7329378 25.1,15.5 C25.1,16.2670622 24.4731986,16.8888889 23.7,16.8888889 Z" id="Combined-Shape" fill="#FABF0C"></path>
    </g>
</svg>