<?xml version="1.0" encoding="UTF-8"?>
<svg width="128px" height="128px" viewBox="0 0 128 128" version="1.1" xmlns="http://www.w3.org/2000/svg" xmlns:xlink="http://www.w3.org/1999/xlink">
    <!-- Generator: Sketch 48.1 (47250) - http://www.bohemiancoding.com/sketch -->
    <title>Slice Copy 9</title>
    <desc>Created with Sketch.</desc>
    <defs></defs>
    <g id="Page-1" stroke="none" stroke-width="1" fill="none" fill-rule="evenodd">
        <path d="M56.5402042,43.9966348 C63.7506444,39.8863842 72.9705985,42.3255895 77.1335481,49.4447523 L95.9777656,81.6707137 C100.140715,88.7898765 97.670236,97.8931147 90.4597958,102.003365 C83.2493556,106.113616 74.0294015,103.67441 69.8664519,96.5552477 L51.0222344,64.3292863 C46.8592848,57.2101235 49.329764,48.1068853 56.5402042,43.9966348 Z" id="Rectangle-9-Copy-2" fill="#C60A1E"></path>
        <path d="M120.531505,31.9995572 C127.673372,36.1158239 130.120357,45.2323862 125.996998,52.3619692 L99.8659913,97.5443509 C95.7426324,104.673934 86.6103622,107.116709 79.4684951,103.000443 C72.3266279,98.8841761 69.8796435,89.7676138 74.0030024,82.6380308 L100.134009,37.4556491 C104.257368,30.3260661 113.389638,27.8832906 120.531505,31.9995572 Z" id="Rectangle-9" fill="#FFC100"></path>
        <path d="M117.237576,66 L125.084103,52.7058636 C129.280747,45.6040272 126.272816,34.5466587 119.08296,30.8076388 C111.893105,27.0686188 105.09227,29.2753593 100,36.0843124 L117.237576,66 Z" id="Combined-Shape" fill="#00C009"></path>
        <path d="M7.46849507,31.9995572 C14.6103622,27.8832906 23.7426324,30.3260661 27.8659913,37.4556491 L53.9969976,82.6380308 C58.1203565,89.7676138 55.6733721,98.8841761 48.5315049,103.000443 C41.3896378,107.116709 32.2573676,104.673934 28.1340087,97.5443509 L2.00300243,52.3619692 C-2.12035651,45.2323862 0.326627899,36.1158239 7.46849507,31.9995572 Z" id="Rectangle-9-Copy-3" fill="#C60A1E"></path>
        <path d="M71.4597958,43.9966348 C78.670236,48.1068853 81.1407152,57.2101235 76.9777656,64.3292863 L58.1335481,96.5552477 C53.9705985,103.67441 44.7506444,106.113616 37.5402042,102.003365 C30.329764,97.8931147 27.8592848,88.7898765 32.0222344,81.6707137 L50.8664519,49.4447523 C55.0294015,42.3255895 64.2493556,39.8863842 71.4597958,43.9966348 Z" id="Rectangle-9-Copy" fill="#F0412F"></path>
        <polygon id="Path-9" fill="#00BAD3" points="113 57.1094221 77 78 92.3035694 51"></polygon>
        <polygon id="Path-8" fill="#FF7800" points="100.944935 36 113 57 92 51.0346843"></polygon>
    </g>
</svg>